<?xml version="1.0" encoding="utf-8"?>
<!-- Generator: Adobe Illustrator 21.0.0, SVG Export Plug-In . SVG Version: 6.00 Build 0)  -->
<svg version="1.1" id="Layer_1" xmlns="http://www.w3.org/2000/svg" xmlns:xlink="http://www.w3.org/1999/xlink" x="0px" y="0px"
	 viewBox="0 0 34 34" style="enable-background:new 0 0 34 34;" xml:space="preserve">
<style type="text/css">
	.st0{opacity:0.3;fill:#010101;}
	.st1{fill:#FFFFFF;}
</style>
<path class="st0" d="M27,34H7c-3.9,0-7-3.2-7-7V7c0-3.8,3.2-7,7-7h20c3.8,0,7,3.2,7,7v20C34,30.8,30.8,34,27,34z"/>
<path class="st1" d="M29.5,14.6c0,0-3.6-6.4-13.6-6C5.5,9,4.1,18.7,11.4,21.2c6.6,2.3,10.3,0,10.3,0s-1.6,3.5-9.2,2.1
	c0,0-3.3-0.4-8-3.5l0,0c0,0,3.6,6.4,13.6,6c10.5-0.5,11.8-10.2,4.5-12.7c-6.6-2.3-10.3,0-10.3,0s1.6-3.5,9.2-2.1
	C21.5,11.1,24.8,11.5,29.5,14.6L29.5,14.6z"/>
</svg>
